<svg width="30" height="30" viewBox="0 0 30 30" fill="none" xmlns="http://www.w3.org/2000/svg">
<g clip-path="url(#clip0)">
<path d="M29 15.6765V2C29 0.89543 28.1046 0 27 0H3C1.89543 0 1 0.89543 1 2V23C0.447715 23 0 23.4477 0 24V26C0 26.5523 0.447715 27 1 27H19.341C19.4451 27.306 19.4988 27.6268 19.5 27.95V28.5C19.5 29.3284 20.1716 30 21 30H27C27.8284 30 28.5 29.3284 28.5 28.5V27.645C28.504 27.0407 28.6587 26.447 28.95 25.9175C29.5903 24.8228 29.951 23.5872 30 22.32V17.32C30.0029 16.6275 29.6163 15.9922 29 15.6765ZM2 2C2 1.44772 2.44772 1 3 1H27C27.5523 1 28 1.44772 28 2V15.521C27.8248 15.5453 27.6542 15.5959 27.494 15.671C27.4389 14.8101 26.7779 14.1107 25.9215 14.007C25.4951 13.9668 25.0687 14.0828 24.7215 14.3335C24.4419 13.8692 23.9605 13.5632 23.4215 13.507C23.1054 13.4777 22.7872 13.5337 22.5 13.669C22.4779 13.1897 22.2599 12.7405 21.8971 12.4265C21.5344 12.1124 21.0585 11.9612 20.581 12.008C19.7218 12.1135 19.0618 12.8197 19.0145 13.684L16.6255 11.2915C16.2286 10.914 15.6054 10.914 15.2085 11.2915L13.7935 12.7065C13.7097 12.7915 13.6419 12.8909 13.5935 13H12.5V11.5C12.5 11.2239 12.2761 11 12 11C11.7239 11 11.5 11.2239 11.5 11.5V13H10C9.72386 13 9.5 13.2239 9.5 13.5C9.5 13.7761 9.72386 14 10 14H11.5V15.5C11.5 15.7761 11.7239 16 12 16C12.2761 16 12.5 15.7761 12.5 15.5V14H13.69C13.72 14.0438 13.7534 14.0851 13.79 14.1235L16.5 16.8295V22.05C16.5018 22.3704 16.5425 22.6894 16.621 23H2V2ZM14.5 13.4135L15.9165 12L19 15.0865V17.913L14.5 13.4135ZM1 26V24H17.013C17.1907 24.3219 17.4123 24.6176 17.6715 24.8785L18.6215 25.8285C18.676 25.883 18.7265 25.9415 18.7765 26H1ZM29 22.32C28.9512 23.4186 28.6339 24.4884 28.076 25.436C27.7027 26.1127 27.5047 26.8721 27.5 27.645V28.5C27.5 28.7761 27.2761 29 27 29H21C20.7239 29 20.5 28.7761 20.5 28.5V27.95C20.497 26.8897 20.0761 25.8734 19.3285 25.1215L18.3785 24.1715C17.8178 23.6076 17.5021 22.8452 17.5 22.05V17.829L19 19.329V20.5C19 20.7761 19.2239 21 19.5 21C19.7761 21 20 20.7761 20 20.5V13.821C19.9876 13.4188 20.2745 13.0694 20.6715 13.0035C20.885 12.9808 21.098 13.0507 21.2565 13.1955C21.4129 13.3373 21.5015 13.5389 21.5 13.75V17.5C21.5 17.7761 21.7239 18 22 18C22.2761 18 22.5 17.7761 22.5 17.5V15.25C22.4984 15.0386 22.587 14.8366 22.7435 14.6945C22.9031 14.5513 23.1156 14.4816 23.329 14.5025C23.7256 14.5688 24.0123 14.918 24 15.32V17.5C24 17.7761 24.2239 18 24.5 18C24.7761 18 25 17.7761 25 17.5V15.75C24.9984 15.5386 25.087 15.3366 25.2435 15.1945C25.403 15.0511 25.6155 14.9814 25.829 15.0025C26.2256 15.0688 26.5123 15.418 26.5 15.82V18C26.5 18.2761 26.7239 18.5 27 18.5C27.2761 18.5 27.5 18.2761 27.5 18V17.25C27.4984 17.0386 27.587 16.8366 27.7435 16.6945C27.9034 16.5517 28.1156 16.4822 28.329 16.5025C28.7256 16.5688 29.0123 16.918 29 17.32V22.32Z" fill="white"/>
<path d="M21.9998 3H25.9998V7.50001C25.9998 7.77615 26.2236 8.00001 26.4998 8.00001C26.7759 8.00001 26.9998 7.77615 26.9998 7.50001V3C26.9998 2.44771 26.552 2 25.9998 2H21.9998C21.7236 2 21.4998 2.22386 21.4998 2.5C21.4998 2.77614 21.7236 3 21.9998 3Z" fill="white"/>
<path d="M7.99995 15H6.99994V8.5C6.9999 8.2978 6.87808 8.11553 6.69127 8.03816C6.50446 7.96079 6.28944 8.00355 6.14644 8.1465L5.14644 9.1465C4.95695 9.34269 4.95966 9.65454 5.15253 9.84741C5.3454 10.0403 5.65725 10.043 5.85344 9.8535L5.99994 9.707V15H4.99994C4.7238 15 4.49994 15.2239 4.49994 15.5C4.49994 15.7761 4.7238 16 4.99994 16H7.99995C8.27609 16 8.49995 15.7761 8.49995 15.5C8.49995 15.2239 8.27609 15 7.99995 15Z" fill="white"/>
</g>
<defs>
<clipPath id="clip0">
<rect width="30" height="30" fill="white"/>
</clipPath>
</defs>
</svg>
