<svg width="50" height="50" viewBox="0 0 50 50" fill="none" xmlns="http://www.w3.org/2000/svg">
<path d="M46.6667 4.25V2.5C46.6667 1.11929 45.5474 0 44.1667 0H43.3333C41.9526 0 40.8333 1.11929 40.8333 2.5V4.16667H34.1667V2.5C34.1667 1.11929 33.0474 0 31.6667 0H30.8333C29.4526 0 28.3333 1.11929 28.3333 2.5V4.16667H21.6667V2.5C21.6667 1.11929 20.5474 0 19.1667 0H18.3333C16.9526 0 15.8333 1.11929 15.8333 2.5V4.16667H9.16667V2.5C9.16667 1.11929 8.04738 0 6.66667 0H5.83333C4.45262 0 3.33333 1.11929 3.33333 2.5V4.25C1.39465 4.64869 0.00249857 6.35408 0 8.33333V13.3333C0.0017875 13.9261 0.319374 14.473 0.833333 14.7683V46.6667C0.833333 48.5076 2.32572 50 4.16667 50H45.8333C47.6743 50 49.1667 48.5076 49.1667 46.6667V14.7683C49.6806 14.473 49.9982 13.9261 50 13.3333V8.33333C49.9975 6.35408 48.6053 4.64869 46.6667 4.25ZM42.5 2.5C42.5 2.03976 42.8731 1.66667 43.3333 1.66667H44.1667C44.6269 1.66667 45 2.03976 45 2.5V7.5C45 7.96024 44.6269 8.33333 44.1667 8.33333H43.3333C42.8731 8.33333 42.5 7.96024 42.5 7.5V2.5ZM30 2.5C30 2.03976 30.3731 1.66667 30.8333 1.66667H31.6667C32.1269 1.66667 32.5 2.03976 32.5 2.5V7.5C32.5 7.96024 32.1269 8.33333 31.6667 8.33333H30.8333C30.3731 8.33333 30 7.96024 30 7.5V2.5ZM17.5 2.5C17.5 2.03976 17.8731 1.66667 18.3333 1.66667H19.1667C19.6269 1.66667 20 2.03976 20 2.5V7.5C20 7.96024 19.6269 8.33333 19.1667 8.33333H18.3333C17.8731 8.33333 17.5 7.96024 17.5 7.5V2.5ZM5 2.5C5 2.03976 5.3731 1.66667 5.83333 1.66667H6.66667C7.1269 1.66667 7.5 2.03976 7.5 2.5V7.5C7.5 7.96024 7.1269 8.33333 6.66667 8.33333H5.83333C5.3731 8.33333 5 7.96024 5 7.5V2.5ZM1.66667 8.33333C1.67104 7.27768 2.33804 6.33855 3.33333 5.98667V7.5C3.33333 8.88071 4.45262 10 5.83333 10H6.66667C8.04738 10 9.16667 8.88071 9.16667 7.5V5.83333H15.8333V7.5C15.8333 8.88071 16.9526 10 18.3333 10H19.1667C20.5474 10 21.6667 8.88071 21.6667 7.5V5.83333H28.3333V7.5C28.3333 8.88071 29.4526 10 30.8333 10H31.6667C33.0474 10 34.1667 8.88071 34.1667 7.5V5.83333H40.8333V7.5C40.8333 8.88071 41.9526 10 43.3333 10H44.1667C45.5474 10 46.6667 8.88071 46.6667 7.5V5.98667C47.662 6.33855 48.329 7.27768 48.3333 8.33333V13.3333H1.66667V8.33333ZM47.5 46.6667C47.5 47.5871 46.7538 48.3333 45.8333 48.3333H4.16667C3.24619 48.3333 2.5 47.5871 2.5 46.6667V15H47.5V46.6667Z" fill="white"/>
<path d="M7.5002 46.6667H37.5002C37.6151 46.6668 37.7287 46.6427 37.8335 46.5958H37.8402L45.3402 43.2625C45.6413 43.1288 45.8354 42.8303 45.8354 42.5008C45.8354 42.1714 45.6413 41.8728 45.3402 41.7392L37.8402 38.4058H37.8319C37.8235 38.4058 37.8135 38.4058 37.8044 38.3975C37.7183 38.3647 37.6273 38.3464 37.5352 38.3433C37.5235 38.3433 37.5135 38.3367 37.5019 38.3367H7.5002C5.65925 38.3367 4.16687 39.8291 4.16687 41.67V43.3367C4.16871 45.1763 5.66056 46.6667 7.5002 46.6667ZM38.3335 44.5508V40.4492L42.9485 42.5L38.3335 44.5508ZM36.6669 41.6667H21.6669C21.2066 41.6667 20.8335 42.0398 20.8335 42.5C20.8335 42.9602 21.2066 43.3333 21.6669 43.3333H36.6669V45H15.8335V43.3333H18.3335C18.7938 43.3333 19.1669 42.9602 19.1669 42.5C19.1669 42.0398 18.7938 41.6667 18.3335 41.6667H15.8335V40H36.6669V41.6667ZM14.1669 40V45H11.6669V40H14.1669ZM5.83354 41.6667C5.83354 40.7462 6.57973 40 7.5002 40H10.0002V45H7.5002C6.57973 45 5.83354 44.2538 5.83354 43.3333V41.6667Z" fill="white"/>
<path d="M14.9996 36.6667C20.5225 36.6667 24.9996 32.1895 24.9996 26.6667C24.9996 21.1438 20.5225 16.6667 14.9996 16.6667C9.47679 16.6667 4.99963 21.1438 4.99963 26.6667C5.01884 32.1815 9.48476 36.6475 14.9996 36.6667ZM10.138 19.9167L10.3996 20.37C10.5474 20.63 10.8232 20.7908 11.1222 20.7915C11.4213 20.7921 11.6977 20.6325 11.8467 20.3732C11.9956 20.1139 11.9942 19.7946 11.843 19.5367L11.5796 19.08C12.3969 18.7075 13.2695 18.4711 14.163 18.38V18.9142C14.163 19.3744 14.5361 19.7475 14.9963 19.7475C15.4565 19.7475 15.8296 19.3744 15.8296 18.9142V18.38C16.7231 18.4711 17.5957 18.7075 18.413 19.08L18.1496 19.5367C17.9984 19.7946 17.997 20.1139 18.1459 20.3732C18.2949 20.6325 18.5713 20.7921 18.8704 20.7915C19.1694 20.7908 19.4452 20.63 19.593 20.37L19.8546 19.9167C20.5827 20.4422 21.2216 21.0812 21.7471 21.8092L21.2938 22.0708C21.0338 22.2186 20.873 22.4944 20.8724 22.7934C20.8717 23.0925 21.0313 23.3689 21.2906 23.5179C21.5499 23.6668 21.8692 23.6654 22.1271 23.5142L22.5838 23.2508C22.9563 24.0681 23.1927 24.9407 23.2838 25.8342H22.7496C22.2894 25.8342 21.9163 26.2073 21.9163 26.6675C21.9163 27.1277 22.2894 27.5008 22.7496 27.5008H23.2838C23.1927 28.3943 22.9563 29.2669 22.5838 30.0842L22.1271 29.8208C21.8692 29.6696 21.5499 29.6682 21.2906 29.8171C21.0313 29.9661 20.8717 30.2425 20.8724 30.5416C20.873 30.8406 21.0338 31.1164 21.2938 31.2642L21.7471 31.5258C21.2235 32.2527 20.5868 32.8911 19.8613 33.4167L19.5996 32.9633C19.4518 32.7034 19.1761 32.5425 18.877 32.5419C18.578 32.5412 18.3015 32.7008 18.1526 32.9602C18.0036 33.2195 18.0051 33.5387 18.1563 33.7967L18.4196 34.2533C17.6024 34.6258 16.7298 34.8623 15.8363 34.9533V34.4192C15.8363 33.9589 15.4632 33.5858 15.003 33.5858C14.5427 33.5858 14.1696 33.9589 14.1696 34.4192V34.9533C13.2761 34.8623 12.4035 34.6258 11.5863 34.2533L11.8496 33.7967C12.0009 33.5387 12.0023 33.2195 11.8533 32.9602C11.7044 32.7008 11.4279 32.5412 11.1289 32.5419C10.8299 32.5425 10.5541 32.7034 10.4063 32.9633L10.1446 33.4167C9.41605 32.8926 8.77626 32.2551 8.24963 31.5283L8.70297 31.2667C8.96293 31.1189 9.12376 30.8431 9.12442 30.5441C9.12508 30.245 8.96546 29.9686 8.70615 29.8196C8.44684 29.6707 8.12761 29.6721 7.86963 29.8233L7.41297 30.0867C7.04049 29.2694 6.80404 28.3968 6.71297 27.5033H7.24713C7.70737 27.5033 8.08047 27.1302 8.08047 26.67C8.08047 26.2098 7.70737 25.8367 7.24713 25.8367H6.7088C6.79988 24.9432 7.03632 24.0706 7.4088 23.2533L7.86547 23.5167C8.12344 23.6679 8.44268 23.6693 8.70198 23.5204C8.96129 23.3714 9.12091 23.095 9.12025 22.7959C9.1196 22.4969 8.95876 22.2211 8.6988 22.0733L8.24963 21.805C8.77425 21.0788 9.41176 20.4413 10.138 19.9167Z" fill="white"/>
<path d="M15.9729 29.6292C16.1382 29.8769 16.423 30.0176 16.7201 29.9983C17.0173 29.9791 17.2816 29.8028 17.4135 29.5358C17.5454 29.2689 17.5248 28.9519 17.3596 28.7042L15.8329 26.4167V21.6667C15.8329 21.2064 15.4598 20.8333 14.9996 20.8333C14.5394 20.8333 14.1663 21.2064 14.1663 21.6667V26.6667C14.1665 26.8312 14.2152 26.9921 14.3063 27.1292L15.9729 29.6292Z" fill="white"/>
<path d="M27.4996 19.1667H43.3329C43.7932 19.1667 44.1663 18.7936 44.1663 18.3333C44.1663 17.8731 43.7932 17.5 43.3329 17.5H27.4996C27.0394 17.5 26.6663 17.8731 26.6663 18.3333C26.6663 18.7936 27.0394 19.1667 27.4996 19.1667Z" fill="white"/>
<path d="M27.4996 23.3333H43.3329C43.7932 23.3333 44.1663 22.9602 44.1663 22.5C44.1663 22.0398 43.7932 21.6667 43.3329 21.6667H27.4996C27.0394 21.6667 26.6663 22.0398 26.6663 22.5C26.6663 22.9602 27.0394 23.3333 27.4996 23.3333Z" fill="white"/>
<path d="M27.4996 27.5H43.3329C43.7932 27.5 44.1663 27.1269 44.1663 26.6667C44.1663 26.2064 43.7932 25.8333 43.3329 25.8333H27.4996C27.0394 25.8333 26.6663 26.2064 26.6663 26.6667C26.6663 27.1269 27.0394 27.5 27.4996 27.5Z" fill="white"/>
<path d="M27.4996 31.6666H43.3329C43.7932 31.6666 44.1663 31.2936 44.1663 30.8333C44.1663 30.3731 43.7932 30 43.3329 30H27.4996C27.0394 30 26.6663 30.3731 26.6663 30.8333C26.6663 31.2936 27.0394 31.6666 27.4996 31.6666Z" fill="white"/>
<path d="M27.4996 35.8333H35.8329C36.2931 35.8333 36.6662 35.4602 36.6662 35C36.6662 34.5398 36.2931 34.1667 35.8329 34.1667H27.4996C27.0394 34.1667 26.6663 34.5398 26.6663 35C26.6663 35.4602 27.0394 35.8333 27.4996 35.8333Z" fill="white"/>
</svg>
