<svg width="50" height="50" viewBox="0 0 50 50" fill="none" xmlns="http://www.w3.org/2000/svg">
<g clip-path="url(#clip0)">
<path d="M41.6667 -1.43051e-06H8.33337C5.57309 0.00275472 3.33613 2.23972 3.33337 5V8.33333C3.33337 9.2538 4.07957 9.99999 5.00004 9.99999H11.6667V40H5.00004C4.07957 40 3.33337 40.7462 3.33337 41.6666V45C3.33613 47.7603 5.57309 49.9972 8.33337 50H41.6667C44.427 49.9972 46.664 47.7603 46.6667 45V5C46.664 2.23972 44.427 0.00275472 41.6667 -1.43051e-06ZM5.00004 5C5.00004 3.15905 6.49243 1.66666 8.33337 1.66666C10.1743 1.66666 11.6667 3.15905 11.6667 5V8.33333H5.00004V5ZM5.00004 45V41.6666H11.6667V45C11.6667 46.8409 10.1743 48.3333 8.33337 48.3333C6.49243 48.3333 5.00004 46.8409 5.00004 45ZM45 45C45 46.8409 43.5077 48.3333 41.6667 48.3333H12.05C12.8758 47.4194 13.333 46.2317 13.3334 45V5C13.333 3.76832 12.8758 2.58057 12.05 1.66666H41.6667C43.5077 1.66666 45 3.15905 45 5V45Z" fill="white"/>
<path d="M41.8517 30.84C41.7795 30.572 41.7464 30.295 41.7534 30.0175C41.8109 29.3004 41.59 28.5886 41.1367 28.03C40.5781 27.5766 39.8663 27.356 39.1492 27.4141C38.8717 27.4205 38.5947 27.3871 38.3267 27.315C38.102 27.1809 37.8967 27.0166 37.7167 26.8267C37.2425 26.2626 36.5667 25.9061 35.8334 25.8333C35.1001 25.9061 34.4242 26.2626 33.95 26.8267C33.77 27.0166 33.5648 27.1809 33.34 27.315C33.072 27.3872 32.795 27.4203 32.5175 27.4133C31.8004 27.3558 31.0887 27.5767 30.53 28.03C30.0766 28.5885 29.856 29.3004 29.9142 30.0175C29.9205 30.295 29.8871 30.5719 29.815 30.84C29.681 31.0647 29.5167 31.27 29.3267 31.45C28.7626 31.9242 28.4062 32.6 28.3334 33.3333C28.4062 34.0666 28.7626 34.7425 29.3267 35.2166C29.5167 35.3966 29.681 35.6019 29.815 35.8267C29.8873 36.0946 29.9204 36.3717 29.9134 36.6492C29.8559 37.3663 30.0767 38.078 30.53 38.6366C31.0834 39.0868 31.7889 39.3064 32.5 39.25V45.8333C32.5 46.1407 32.6692 46.4232 32.9402 46.5682C33.2113 46.7132 33.5402 46.6973 33.7959 46.5267L35.8334 45.1667L37.8709 46.525C38.1263 46.6954 38.4548 46.7116 38.7258 46.5669C38.9967 46.4223 39.1661 46.1404 39.1667 45.8333V39.25C39.8781 39.3053 40.5835 39.0848 41.1367 38.6342C41.5901 38.0756 41.8107 37.3637 41.7525 36.6467C41.7462 36.3692 41.7796 36.0922 41.8517 35.8241C41.9858 35.5994 42.1501 35.3941 42.34 35.2142C42.9035 34.7406 43.2599 34.0657 43.3334 33.3333C43.2606 32.6 42.9041 31.9242 42.34 31.45C42.1501 31.27 41.9858 31.0647 41.8517 30.84V30.84ZM36.2959 43.4733C36.0158 43.2865 35.6509 43.2865 35.3709 43.4733L34.1667 44.2758V40.0392C34.6009 40.5064 35.197 40.7904 35.8334 40.8333C36.4698 40.7904 37.0659 40.5064 37.5 40.0392V44.2758L36.2959 43.4733ZM41.1234 34.0775C40.7889 34.3962 40.514 34.7721 40.3117 35.1875C40.154 35.6357 40.0767 36.1082 40.0834 36.5833C40.0993 36.8801 40.0554 37.1772 39.9542 37.4567C39.6748 37.5571 39.3782 37.601 39.0817 37.5858C38.6063 37.5771 38.1331 37.653 37.6842 37.81C37.2688 38.0123 36.893 38.2872 36.5742 38.6217C36.3425 38.8383 35.9909 39.165 35.83 39.165C35.6692 39.165 35.3175 38.8383 35.0859 38.6217C34.7671 38.2872 34.3912 38.0123 33.9759 37.81C33.5286 37.6532 33.0573 37.5765 32.5834 37.5833C32.2865 37.5993 31.9895 37.5553 31.71 37.4542C31.6106 37.1751 31.5676 36.8791 31.5834 36.5833C31.5921 36.1079 31.5161 35.6347 31.3592 35.1858C31.1569 34.7705 30.882 34.3946 30.5475 34.0758C30.3267 33.8458 30 33.5 30 33.3333C30 33.1667 30.3267 32.8208 30.5434 32.5891C30.8778 32.2704 31.1527 31.8945 31.355 31.4792C31.5128 31.031 31.5901 30.5584 31.5834 30.0833C31.5674 29.7865 31.6113 29.4895 31.7125 29.21C31.9916 29.1106 32.2876 29.0675 32.5834 29.0833C33.0588 29.092 33.532 29.0161 33.9809 28.8592C34.3962 28.6568 34.7721 28.3819 35.0909 28.0475C35.3225 27.8308 35.6742 27.5042 35.835 27.5042C35.9959 27.5042 36.3475 27.8308 36.5792 28.0475C36.898 28.3819 37.2738 28.6568 37.6892 28.8592C38.1381 29.0159 38.6112 29.0921 39.0867 29.0842C39.3835 29.0682 39.6805 29.1121 39.96 29.2133C40.0605 29.4927 40.1044 29.7893 40.0892 30.0858C40.0805 30.5613 40.1564 31.0344 40.3134 31.4833C40.5157 31.8987 40.7906 32.2746 41.125 32.5933C41.3417 32.825 41.6684 33.1767 41.6684 33.3375C41.6684 33.4983 41.34 33.8458 41.1234 34.0775Z" fill="white"/>
<path d="M35.8333 30C33.9923 30 32.4999 31.4924 32.4999 33.3333C32.4999 35.1743 33.9923 36.6667 35.8333 36.6667C37.6742 36.6667 39.1666 35.1743 39.1666 33.3333C39.1666 31.4924 37.6742 30 35.8333 30ZM35.8333 35C34.9128 35 34.1666 34.2538 34.1666 33.3333C34.1666 32.4128 34.9128 31.6666 35.8333 31.6666C36.7538 31.6666 37.4999 32.4128 37.4999 33.3333C37.4999 34.2538 36.7538 35 35.8333 35Z" fill="white"/>
<path d="M16.6667 7.5H41.6667C42.1269 7.5 42.5 7.12691 42.5 6.66667C42.5 6.20643 42.1269 5.83333 41.6667 5.83333H16.6667C16.2065 5.83333 15.8334 6.20643 15.8334 6.66667C15.8334 7.12691 16.2065 7.5 16.6667 7.5Z" fill="white"/>
<path d="M16.6667 10.8333H41.6667C42.1269 10.8333 42.5 10.4602 42.5 10C42.5 9.53976 42.1269 9.16667 41.6667 9.16667H16.6667C16.2065 9.16667 15.8334 9.53976 15.8334 10C15.8334 10.4602 16.2065 10.8333 16.6667 10.8333Z" fill="white"/>
<path d="M41.6667 14.1667H31.6667C31.2065 14.1667 30.8334 14.5398 30.8334 15C30.8334 15.4602 31.2065 15.8333 31.6667 15.8333H41.6667C42.1269 15.8333 42.5 15.4602 42.5 15C42.5 14.5398 42.1269 14.1667 41.6667 14.1667Z" fill="white"/>
<path d="M16.6667 19.1667H41.6667C42.1269 19.1667 42.5 18.7936 42.5 18.3333C42.5 17.8731 42.1269 17.5 41.6667 17.5H16.6667C16.2065 17.5 15.8334 17.8731 15.8334 18.3333C15.8334 18.7936 16.2065 19.1667 16.6667 19.1667Z" fill="white"/>
<path d="M16.6667 22.5H41.6667C42.1269 22.5 42.5 22.1269 42.5 21.6667C42.5 21.2064 42.1269 20.8333 41.6667 20.8333H16.6667C16.2065 20.8333 15.8334 21.2064 15.8334 21.6667C15.8334 22.1269 16.2065 22.5 16.6667 22.5Z" fill="white"/>
<path d="M16.6667 25.8333H30C30.4603 25.8333 30.8334 25.4602 30.8334 25C30.8334 24.5398 30.4603 24.1667 30 24.1667H16.6667C16.2065 24.1667 15.8334 24.5398 15.8334 25C15.8334 25.4602 16.2065 25.8333 16.6667 25.8333Z" fill="white"/>
<path d="M26.6667 27.5H16.6667C16.2065 27.5 15.8334 27.8731 15.8334 28.3333C15.8334 28.7935 16.2065 29.1666 16.6667 29.1666H26.6667C27.1269 29.1666 27.5 28.7935 27.5 28.3333C27.5 27.8731 27.1269 27.5 26.6667 27.5Z" fill="white"/>
<path d="M26.6667 40C24.9126 40 24.3434 38.9533 23.8417 38.03C23.5226 37.4416 23.1917 36.8333 22.4767 36.8008C21.8101 36.7725 21.3376 37.3241 20.9767 37.8708C20.9309 37.9391 20.8884 38.0025 20.8476 38.06C20.8376 37.9033 20.8334 37.7191 20.8334 37.5C20.8334 36.14 19.9642 34.5583 18.8434 34.5583C18.4392 34.5583 17.5001 34.7641 17.5001 36.6666C17.4649 37.9921 16.9602 39.262 16.0759 40.25C15.7605 40.5774 15.7658 41.0972 16.0877 41.4182C16.4096 41.7392 16.9294 41.7429 17.2559 41.4266C18.326 40.2655 18.9886 38.7873 19.1434 37.2158C19.1586 37.3098 19.1664 37.4048 19.1667 37.5C19.1667 38.74 19.2451 39.975 20.1851 40.2591C21.1851 40.5633 21.9776 39.3683 22.3601 38.7958L22.3767 38.8266C23.0873 40.5649 24.789 41.6915 26.6667 41.6666C27.127 41.6666 27.5001 41.2935 27.5001 40.8333C27.5001 40.3731 27.127 40 26.6667 40V40Z" fill="white"/>
</g>
<defs>
<clipPath id="clip0">
<rect width="50" height="50" fill="white"/>
</clipPath>
</defs>
</svg>
