<svg width="26" height="30" viewBox="0 0 26 30" fill="none" xmlns="http://www.w3.org/2000/svg">
<path d="M23 -9.53674e-07H3C1.34383 0.00165274 0.00165369 1.34383 0 3V5C0 5.55228 0.447715 6 1 6H5V24H1C0.447715 24 0 24.4477 0 25V27C0.00165369 28.6562 1.34383 29.9983 3 30H23C24.6562 29.9983 25.9983 28.6562 26 27V3C25.9983 1.34383 24.6562 0.00165274 23 -9.53674e-07ZM1 3C1 1.89543 1.89543 0.999999 3 0.999999C4.10457 0.999999 5 1.89543 5 3V5H1V3ZM1 27V25H5V27C5 28.1046 4.10457 29 3 29C1.89543 29 1 28.1046 1 27ZM25 27C25 28.1046 24.1046 29 23 29H5.23C5.72543 28.4516 5.9998 27.739 6 27V3C5.9998 2.26099 5.72543 1.54834 5.23 0.999999H23C24.1046 0.999999 25 1.89543 25 3V27Z" fill="white"/>
<path d="M23.111 18.504C23.0677 18.3432 23.0478 18.177 23.052 18.0105C23.0865 17.5802 22.954 17.1532 22.682 16.818C22.3469 16.5459 21.9197 16.4136 21.4895 16.4485C21.323 16.4523 21.1568 16.4322 20.996 16.389C20.8611 16.3086 20.738 16.21 20.63 16.096C20.3455 15.7575 19.94 15.5437 19.5 15.5C19.06 15.5437 18.6545 15.7575 18.37 16.096C18.262 16.21 18.1389 16.3086 18.004 16.389C17.8432 16.4323 17.677 16.4522 17.5105 16.448C17.0802 16.4135 16.6532 16.546 16.318 16.818C16.046 17.1531 15.9136 17.5802 15.9485 18.0105C15.9523 18.177 15.9323 18.3432 15.889 18.504C15.8086 18.6388 15.71 18.762 15.596 18.87C15.2576 19.1545 15.0437 19.56 15 20C15.0437 20.44 15.2576 20.8455 15.596 21.13C15.71 21.238 15.8086 21.3611 15.889 21.496C15.9323 21.6568 15.9522 21.823 15.948 21.9895C15.9135 22.4198 16.046 22.8468 16.318 23.182C16.65 23.4521 17.0733 23.5838 17.5 23.55V27.5C17.5 27.6844 17.6015 27.8539 17.7641 27.9409C17.9267 28.0279 18.1241 28.0184 18.2775 27.916L19.5 27.1L20.7225 27.915C20.8758 28.0173 21.0729 28.0269 21.2354 27.9402C21.398 27.8534 21.4997 27.6843 21.5 27.5V23.55C21.9268 23.5832 22.3501 23.4509 22.682 23.1805C22.954 22.8454 23.0864 22.4182 23.0515 21.988C23.0477 21.8215 23.0677 21.6553 23.111 21.4945C23.1914 21.3596 23.29 21.2365 23.404 21.1285C23.7421 20.8443 23.9559 20.4394 24 20C23.9563 19.56 23.7424 19.1545 23.404 18.87C23.29 18.762 23.1914 18.6388 23.111 18.504V18.504ZM19.7775 26.084C19.6095 25.9719 19.3905 25.9719 19.2225 26.084L18.5 26.5655V24.0235C18.7605 24.3038 19.1182 24.4743 19.5 24.5C19.8818 24.4743 20.2395 24.3038 20.5 24.0235V26.5655L19.7775 26.084ZM22.674 20.4465C22.4733 20.6377 22.3084 20.8633 22.187 21.1125C22.0924 21.3814 22.046 21.6649 22.05 21.95C22.0596 22.1281 22.0332 22.3063 21.9725 22.474C21.8049 22.5343 21.6269 22.5606 21.449 22.5515C21.1637 22.5463 20.8798 22.5918 20.6105 22.686C20.3613 22.8074 20.1357 22.9723 19.9445 23.173C19.8055 23.303 19.5945 23.499 19.498 23.499C19.4015 23.499 19.1905 23.303 19.0515 23.173C18.8603 22.9723 18.6347 22.8074 18.3855 22.686C18.1172 22.5919 17.8343 22.5459 17.55 22.55C17.3719 22.5596 17.1937 22.5332 17.026 22.4725C16.9664 22.3051 16.9405 22.1275 16.95 21.95C16.9552 21.6647 16.9097 21.3808 16.8155 21.1115C16.6941 20.8623 16.5292 20.6367 16.3285 20.4455C16.196 20.3075 16 20.1 16 20C16 19.9 16.196 19.6925 16.326 19.5535C16.5267 19.3622 16.6916 19.1367 16.813 18.8875C16.9076 18.6186 16.954 18.335 16.95 18.05C16.9404 17.8719 16.9668 17.6937 17.0275 17.526C17.1949 17.4663 17.3725 17.4405 17.55 17.45C17.8353 17.4552 18.1192 17.4097 18.3885 17.3155C18.6377 17.1941 18.8633 17.0292 19.0545 16.8285C19.1935 16.6985 19.4045 16.5025 19.501 16.5025C19.5975 16.5025 19.8085 16.6985 19.9475 16.8285C20.1387 17.0292 20.3643 17.1941 20.6135 17.3155C20.8829 17.4096 21.1667 17.4553 21.452 17.4505C21.6301 17.4409 21.8083 17.4673 21.976 17.528C22.0363 17.6956 22.0626 17.8736 22.0535 18.0515C22.0483 18.3368 22.0938 18.6207 22.188 18.89C22.3094 19.1392 22.4743 19.3647 22.675 19.556C22.805 19.695 23.001 19.906 23.001 20.0025C23.001 20.099 22.804 20.3075 22.674 20.4465Z" fill="white"/>
<path d="M19.4999 18C18.3954 18 17.4999 18.8954 17.4999 20C17.4999 21.1046 18.3954 22 19.4999 22C20.6045 22 21.4999 21.1046 21.4999 20C21.4999 18.8954 20.6045 18 19.4999 18ZM19.4999 21C18.9477 21 18.4999 20.5523 18.4999 20C18.4999 19.4477 18.9477 19 19.4999 19C20.0522 19 20.4999 19.4477 20.4999 20C20.4999 20.5523 20.0522 21 19.4999 21Z" fill="white"/>
<path d="M8 4.5H23C23.2761 4.5 23.5 4.27614 23.5 4C23.5 3.72386 23.2761 3.5 23 3.5H8C7.72386 3.5 7.5 3.72386 7.5 4C7.5 4.27614 7.72386 4.5 8 4.5Z" fill="white"/>
<path d="M8 6.5H23C23.2761 6.5 23.5 6.27614 23.5 6C23.5 5.72386 23.2761 5.5 23 5.5H8C7.72386 5.5 7.5 5.72386 7.5 6C7.5 6.27614 7.72386 6.5 8 6.5Z" fill="white"/>
<path d="M23 8.5H17C16.7239 8.5 16.5 8.72386 16.5 9C16.5 9.27615 16.7239 9.5 17 9.5H23C23.2761 9.5 23.5 9.27615 23.5 9C23.5 8.72386 23.2761 8.5 23 8.5Z" fill="white"/>
<path d="M8 11.5H23C23.2761 11.5 23.5 11.2761 23.5 11C23.5 10.7239 23.2761 10.5 23 10.5H8C7.72386 10.5 7.5 10.7239 7.5 11C7.5 11.2761 7.72386 11.5 8 11.5Z" fill="white"/>
<path d="M8 13.5H23C23.2761 13.5 23.5 13.2761 23.5 13C23.5 12.7239 23.2761 12.5 23 12.5H8C7.72386 12.5 7.5 12.7239 7.5 13C7.5 13.2761 7.72386 13.5 8 13.5Z" fill="white"/>
<path d="M8 15.5H16C16.2761 15.5 16.5 15.2761 16.5 15C16.5 14.7239 16.2761 14.5 16 14.5H8C7.72386 14.5 7.5 14.7239 7.5 15C7.5 15.2761 7.72386 15.5 8 15.5Z" fill="white"/>
<path d="M14 16.5H8C7.72386 16.5 7.5 16.7238 7.5 17C7.5 17.2761 7.72386 17.5 8 17.5H14C14.2761 17.5 14.5 17.2761 14.5 17C14.5 16.7238 14.2761 16.5 14 16.5Z" fill="white"/>
<path d="M14 24C12.9475 24 12.606 23.372 12.305 22.818C12.1135 22.465 11.915 22.1 11.486 22.0805C11.086 22.0635 10.8025 22.3945 10.586 22.7225C10.5585 22.7635 10.533 22.8015 10.5085 22.836C10.5025 22.742 10.5 22.6315 10.5 22.5C10.5 21.684 9.9785 20.735 9.306 20.735C9.0635 20.735 8.5 20.8585 8.5 22C8.47888 22.7953 8.17606 23.5572 7.6455 24.15C7.45627 24.3464 7.45941 24.6583 7.65256 24.8509C7.84571 25.0435 8.15758 25.0458 8.3535 24.856C8.99557 24.1593 9.39313 23.2724 9.486 22.3295C9.4951 22.3859 9.49978 22.4429 9.5 22.5C9.5 23.244 9.547 23.985 10.111 24.1555C10.711 24.338 11.1865 23.621 11.416 23.2775L11.426 23.296C11.8523 24.339 12.8733 25.0149 14 25C14.2761 25 14.5 24.7761 14.5 24.5C14.5 24.2238 14.2761 24 14 24V24Z" fill="white"/>
</svg>
