<svg width="50" height="50" viewBox="0 0 50 50" fill="none" xmlns="http://www.w3.org/2000/svg">
<g clip-path="url(#clip0)">
<path d="M49.9998 25C50.0096 18.7663 47.6773 12.7565 43.465 8.16131C43.1196 7.77147 42.7688 7.40975 42.4038 7.06678C42.2273 6.89461 42.0398 6.73592 41.8587 6.56942C41.8244 6.53143 41.7865 6.49686 41.7456 6.4662C38.6977 3.68818 35.0027 1.71729 30.9976 0.73341C30.6265 0.632532 30.2554 0.553138 29.8958 0.490052C28.2845 0.161928 26.6442 -0.00223112 25 0.000112622C19.5875 -0.0177584 14.3184 1.73868 9.9992 5.00048C8.97909 5.76718 8.01816 6.60946 7.12441 7.52029C4.46212 10.2318 2.45969 13.5197 1.272 17.1293L1.27171 17.1304L1.27122 17.1318L1.27103 17.1328C-0.840386 23.4961 -0.30494 30.441 2.75686 36.4054C2.94563 36.7827 3.14543 37.1488 3.35822 37.4996C3.47307 37.6986 3.60744 37.8832 3.72746 38.0786L3.72853 38.0851C3.76847 38.1855 3.82775 38.2769 3.90324 38.3542C6.82617 42.9887 11.194 46.5316 16.3318 48.4355L16.3562 48.4455C16.4348 48.4744 16.5093 48.5119 16.5882 48.5399C16.9777 48.6844 17.378 48.8179 17.7569 48.9228C25.125 51.1617 33.1142 49.8704 39.4019 45.4243C39.7514 45.1781 40.0937 44.9236 40.4287 44.6607C45.4661 40.7079 48.7944 34.9728 49.7273 28.6381L49.7282 28.6302L49.7285 28.6283V28.6277C49.9115 27.4272 50.0022 26.2145 49.9998 25ZM30.8333 2.41739C34.013 3.23311 36.9819 4.71855 39.541 6.7744L38.4199 7.15037C38.379 7.12586 38.3414 7.09774 38.2983 7.07616L31.0958 3.4751C31.0108 3.43701 30.9231 3.40537 30.8333 3.38047V2.41739ZM30.1557 4.96601C30.2172 4.93593 30.2891 4.93593 30.3506 4.96601L37.5527 8.56707C37.6421 8.6116 37.6896 8.71131 37.6679 8.80877L35.945 16.5619C35.9234 16.6702 35.8225 16.7438 35.7127 16.7315L25.7327 15.8242C25.6494 15.8173 25.5776 15.7626 25.5488 15.6841L22.9602 8.78191C22.9207 8.67761 22.9668 8.56033 23.0668 8.51092L30.1557 4.96601ZM26.0368 17.5255L35.5622 18.3915C35.6192 18.3964 35.6757 18.3993 35.7323 18.3993C35.7439 18.3993 35.7549 18.3965 35.7665 18.3963L40.7423 28.3482L36.1303 36.6667H25.3994C25.3676 36.5757 25.3287 36.4875 25.2831 36.4026L20.8189 28.3673L26.0368 17.5255ZM19.4774 27.3121C19.4131 27.2939 19.348 27.2792 19.2822 27.2681L10.356 26.3757C10.221 26.3632 10.085 26.3655 9.95047 26.3826L6.80078 16.9336C6.82265 16.9098 6.84765 16.8899 6.86846 16.8648C6.93857 16.7925 6.99931 16.7118 7.04912 16.6244L11.7145 9.16667H21.3448C21.3593 9.23435 21.3775 9.30115 21.3992 9.36687L23.9879 16.2691C24.092 16.5305 24.2542 16.7649 24.4622 16.9545L19.4774 27.3121ZM24.9999 1.6668C26.3976 1.66759 27.7924 1.79678 29.1666 2.05264V3.59717L22.3213 7.02C22.0901 7.1369 21.8857 7.30037 21.7207 7.50018H11.9765C11.9667 7.46697 11.9647 7.43406 11.9531 7.40086L11.4873 5.99598C15.4254 3.17022 20.1529 1.65557 24.9999 1.6668ZM3.42414 16.123C3.49035 15.9614 3.56388 15.8035 3.63361 15.6436C3.78263 15.3018 3.93722 14.963 4.10216 14.6297C4.18937 14.4536 4.2798 14.2792 4.3714 14.1054C4.53937 13.7866 4.71495 13.4723 4.89806 13.1625C4.99308 13.0009 5.08653 12.8385 5.18546 12.6795C5.40538 12.3257 5.63721 11.9797 5.87598 11.6383C5.94727 11.5364 6.01338 11.431 6.08643 11.3301C6.40234 10.8937 6.73379 10.4684 7.08056 10.0541C7.16767 9.94997 7.26142 9.85105 7.35039 9.74841C7.61708 9.4406 7.88984 9.13757 8.17323 8.84324C8.30565 8.70564 8.44276 8.57195 8.5788 8.43748C8.83534 8.18377 9.09793 7.93543 9.36668 7.69246C9.51512 7.55858 9.66404 7.42537 9.81619 7.2949C9.90525 7.21854 9.99998 7.14744 10.0903 7.07225L10.3953 7.98797C10.4163 8.04519 10.4091 8.10896 10.3758 8.16004L10.3636 8.17957L5.63536 15.7426C5.61866 15.7605 5.60284 15.7789 5.5877 15.798C5.56104 15.8331 5.52149 15.8561 5.47784 15.8619L3.36398 16.2843C3.38527 16.2312 3.40236 16.1759 3.42414 16.123ZM4.79298 36.6516C4.59484 36.3245 4.41622 35.9973 4.24201 35.649C2.54573 32.3558 1.66263 28.7044 1.66673 25C1.66946 22.6636 2.02522 20.341 2.7219 18.111L5.267 17.6033L8.51639 27.3514C8.39833 27.565 8.32353 27.7998 8.29628 28.0425L7.43417 35.8008L4.86622 36.7668C4.84327 36.7273 4.81583 36.6913 4.79298 36.6516ZM15.8333 46.4349C11.77 44.6997 8.28388 41.8448 5.78194 38.2031L7.92031 37.3988C7.96171 37.4503 8.00595 37.4996 8.05263 37.5463L15.4044 43.979C15.5341 44.0894 15.6785 44.1813 15.8333 44.2521V46.4349ZM16.5023 42.725L9.15008 36.2919C9.09666 36.2451 9.06942 36.1751 9.07723 36.1044L9.95291 28.2264C9.96531 28.1165 10.058 28.0334 10.1685 28.0331L10.1901 28.0343L19.1155 28.9266C19.1868 28.9334 19.2503 28.975 19.2851 29.0378L23.8265 37.212C23.8789 37.3072 23.8534 37.4264 23.7666 37.4919L16.7752 42.7357C16.693 42.7963 16.5796 42.7919 16.5023 42.725ZM18.2255 47.3237C17.9836 47.2564 17.7418 47.1694 17.5 47.086V44.2387C17.5966 44.1902 17.6888 44.1332 17.7755 44.0686L24.7665 38.8252C24.9465 38.6901 25.1004 38.5234 25.221 38.3333H35.8941L37.6131 44.3392C37.6358 44.4115 37.6631 44.4823 37.6948 44.5512C31.9366 48.315 24.8055 49.3306 18.2255 47.3237ZM47.9252 29.2895C47.8936 29.4603 47.8605 29.6308 47.825 29.8007C47.7821 30.0056 47.7356 30.2096 47.6873 30.413C47.6476 30.5796 47.6077 30.7461 47.5644 30.9115C47.5106 31.1171 47.4522 31.3211 47.3928 31.5249C47.3459 31.6859 47.2998 31.8473 47.2494 32.0072C47.1841 32.2138 47.1134 32.4184 47.0425 32.623C46.9894 32.7763 46.9382 32.9303 46.8819 33.0824C46.802 33.2982 46.7154 33.5114 46.6291 33.7247C46.5737 33.8617 46.5213 34 46.4633 34.1358C46.3577 34.3833 46.2443 34.6273 46.1301 34.871C46.084 34.9693 46.0418 35.0693 45.9943 35.167C45.8291 35.5073 45.6557 35.8434 45.4744 36.1754C45.4419 36.2349 45.4058 36.2925 45.3727 36.3517C45.2211 36.6232 45.0665 36.8931 44.9042 37.1583C44.8379 37.2667 44.7668 37.3719 44.6987 37.4791C44.5638 37.6918 44.4286 37.9043 44.2869 38.1126C44.2057 38.2319 44.1201 38.3483 44.0368 38.4662C43.9009 38.6581 43.7646 38.8499 43.6228 39.0378C43.5314 39.159 43.4364 39.2776 43.3427 39.3971C43.202 39.5763 43.0605 39.7547 42.9146 39.9298C42.8143 40.0501 42.7113 40.1684 42.6086 40.2869C42.4617 40.456 42.3134 40.624 42.1616 40.789C42.054 40.906 41.9446 41.0213 41.8347 41.1362C41.6807 41.2969 41.5244 41.4555 41.3658 41.6119C41.2513 41.7248 41.1356 41.8367 41.0188 41.9473C40.858 42.0994 40.6946 42.2491 40.5288 42.3965C40.4079 42.5045 40.2868 42.6122 40.1635 42.7178C39.9951 42.862 39.8231 43.0026 39.6503 43.1421C39.5235 43.2445 39.3973 43.3475 39.2681 43.4473C39.2202 43.4843 39.1704 43.5191 39.1223 43.5558L37.503 37.8954L37.4778 37.812C37.4605 37.7565 37.4653 37.6963 37.4912 37.6443L42.1882 29.1752L42.2256 29.1097C42.2603 29.0455 42.3243 29.0024 42.3969 28.9945C42.4245 28.993 42.4521 28.9899 42.4795 28.9855H47.9771C47.9598 29.0869 47.9439 29.1886 47.9252 29.2895ZM48.2011 27.3281C48.1723 27.3268 48.1448 27.3189 48.1159 27.3189H42.4315C42.3555 27.3178 42.2795 27.3244 42.2049 27.3389C42.1728 27.3424 42.1435 27.3553 42.1119 27.3604L37.245 17.6263C37.4021 17.4175 37.5135 17.1781 37.5719 16.9234L39.2947 9.1699C39.3349 8.98386 39.3466 8.79285 39.3294 8.6033L41.0017 8.04246C41.0835 8.12 41.1703 8.19129 41.2512 8.27019C41.5897 8.58884 41.9058 8.91472 42.2269 9.27683C46.1625 13.5665 48.3419 19.1784 48.3333 24.9999C48.3297 25.7778 48.2857 26.5549 48.2011 27.3281Z" fill="white"/>
</g>
<defs>
<clipPath id="clip0">
<rect width="50" height="50" fill="white"/>
</clipPath>
</defs>
</svg>
