<svg width="30" height="30" viewBox="0 0 30 30" fill="none" xmlns="http://www.w3.org/2000/svg">
<path d="M29.9999 15C30.0058 11.2598 28.6064 7.65389 26.079 4.89678C25.8718 4.66287 25.6613 4.44584 25.4423 4.24006C25.3364 4.13676 25.2239 4.04154 25.1152 3.94164C25.0947 3.91885 25.0719 3.89811 25.0474 3.87971C23.2186 2.2129 21.0016 1.03037 18.5986 0.440037C18.3759 0.37951 18.1533 0.331874 17.9375 0.294022C16.9708 0.097148 15.9866 -0.00134764 15 5.86087e-05C11.7525 -0.010664 8.59107 1.0432 5.99954 3.00028C5.38748 3.4603 4.81092 3.96567 4.27467 4.51217C2.6773 6.13907 1.47584 8.1118 0.763227 10.2776L0.763051 10.2782L0.762758 10.2791L0.762641 10.2797C-0.504207 14.0977 -0.18294 18.2646 1.65414 21.8432C1.7674 22.0696 1.88728 22.2893 2.01496 22.4997C2.08386 22.6191 2.16449 22.7299 2.2365 22.8471L2.23714 22.8511C2.26111 22.9113 2.29667 22.9661 2.34197 23.0125C4.09573 25.7932 6.71643 27.919 9.79909 29.0613L9.81374 29.0673C9.86091 29.0846 9.90561 29.1071 9.95296 29.124C10.1866 29.2106 10.4268 29.2907 10.6541 29.3537C15.075 30.697 19.8685 29.9222 23.6411 27.2546C23.8508 27.1069 24.0562 26.9541 24.2573 26.7964C27.2797 24.4248 29.2767 20.9837 29.8364 17.1828L29.8369 17.1781L29.8371 17.177V17.1766C29.9469 16.4563 30.0013 15.7287 29.9999 15ZM18.5 1.45042C20.4078 1.93985 22.1891 2.83112 23.7246 4.06463L23.052 4.29022C23.0274 4.27551 23.0049 4.25863 22.979 4.24568L18.6575 2.08505C18.6065 2.0622 18.5539 2.04321 18.5 2.02827V1.45042ZM18.0935 2.9796C18.1304 2.96155 18.1735 2.96155 18.2104 2.9796L22.5317 5.14023C22.5853 5.16695 22.6138 5.22677 22.6008 5.28525L21.5671 9.9371C21.554 10.0021 21.4935 10.0463 21.4277 10.0389L15.4396 9.49449C15.3897 9.49039 15.3466 9.45758 15.3293 9.41047L13.7761 5.26914C13.7524 5.20656 13.7801 5.13619 13.8401 5.10654L18.0935 2.9796ZM15.6221 10.5153L21.3374 11.0349C21.3715 11.0378 21.4055 11.0395 21.4394 11.0395C21.4463 11.0395 21.453 11.0379 21.4599 11.0378L24.4454 17.0089L21.6782 22H15.2397C15.2206 21.9454 15.1972 21.8925 15.1699 21.8415L12.4913 17.0204L15.6221 10.5153ZM11.6864 16.3873C11.6479 16.3764 11.6088 16.3675 11.5693 16.3608L6.21364 15.8254C6.13261 15.8179 6.05105 15.8193 5.97031 15.8296L4.08049 10.1602C4.09362 10.1459 4.10862 10.1339 4.1211 10.1189C4.16317 10.0755 4.19961 10.027 4.2295 9.9746L7.02874 5.5H12.8069C12.8156 5.5406 12.8265 5.58068 12.8396 5.62011L14.3928 9.76144C14.4552 9.9183 14.5525 10.0589 14.6773 10.1727L11.6864 16.3873ZM15 1.00007C15.8386 1.00054 16.6754 1.07806 17.5 1.23158V2.15829L13.3928 4.21199C13.2541 4.28213 13.1314 4.38022 13.0325 4.5001H7.18594C7.18003 4.48018 7.17885 4.46043 7.17188 4.44051L6.89239 3.59758C9.25529 1.90212 12.0918 0.993336 15 1.00007ZM2.05451 9.67379C2.09423 9.57681 2.13836 9.48207 2.18019 9.38615C2.2696 9.18107 2.36236 8.97781 2.46132 8.77783C2.51365 8.67213 2.5679 8.56748 2.62286 8.46324C2.72365 8.27194 2.829 8.08338 2.93886 7.89747C2.99587 7.80055 3.05194 7.70311 3.1113 7.60766C3.24325 7.39544 3.38235 7.18778 3.52561 6.983C3.56839 6.92183 3.60805 6.8586 3.65188 6.79808C3.84143 6.53622 4.0403 6.28105 4.24836 6.03243C4.30063 5.96997 4.35688 5.91062 4.41026 5.84904C4.57027 5.66435 4.73393 5.48253 4.90396 5.30593C4.98342 5.22338 5.06568 5.14316 5.1473 5.06248C5.30123 4.91025 5.45879 4.76125 5.62003 4.61547C5.7091 4.53514 5.79845 4.45521 5.88974 4.37693C5.94318 4.33111 6.00001 4.28846 6.05421 4.24334L6.2372 4.79277C6.2498 4.82711 6.24546 4.86537 6.22548 4.89601L6.21816 4.90773L3.38124 9.44556C3.37122 9.45629 3.36173 9.4673 3.35265 9.47879C3.33665 9.49982 3.31292 9.51365 3.28673 9.51711L2.01841 9.77058C2.03119 9.73871 2.04144 9.70554 2.05451 9.67379ZM2.87581 21.991C2.75693 21.7947 2.64976 21.5984 2.54523 21.3894C1.52746 19.4135 0.9976 17.2226 1.00006 15C1.0017 13.5981 1.21516 12.2046 1.63316 10.8666L3.16022 10.5619L5.10986 16.4108C5.03902 16.539 4.99414 16.6799 4.97779 16.8255L4.46053 21.4805L2.91976 22.06C2.90599 22.0364 2.88952 22.0147 2.87581 21.991ZM9.50003 27.8609C7.06202 26.8198 4.97035 25.1068 3.46919 22.9218L4.75221 22.4393C4.77705 22.4702 4.80359 22.4997 4.8316 22.5278L9.24269 26.3874C9.3205 26.4536 9.4071 26.5088 9.50003 26.5512V27.8609ZM9.9014 25.635L5.49007 21.7752C5.45802 21.747 5.44168 21.705 5.44636 21.6626L5.97177 16.9358C5.97921 16.8699 6.03482 16.82 6.10114 16.8198L6.11409 16.8206L11.4693 17.356C11.5121 17.36 11.5502 17.385 11.5711 17.4227L14.2959 22.3272C14.3274 22.3843 14.3121 22.4558 14.26 22.4952L10.0652 25.6414C10.0158 25.6778 9.9478 25.6751 9.9014 25.635ZM10.9353 28.3942C10.7902 28.3538 10.6451 28.3017 10.5 28.2516V26.5432C10.558 26.5141 10.6133 26.4799 10.6653 26.4411L14.8599 23.2951C14.9679 23.214 15.0603 23.114 15.1326 23H21.5365L22.5679 26.6035C22.5815 26.6469 22.5979 26.6894 22.6169 26.7307C19.162 28.989 14.8833 29.5983 10.9353 28.3942ZM28.7552 17.5737C28.7362 17.6762 28.7163 17.7785 28.695 17.8804C28.6693 18.0033 28.6414 18.1257 28.6124 18.2478C28.5886 18.3477 28.5646 18.4476 28.5387 18.5469C28.5064 18.6702 28.4713 18.7926 28.4357 18.9149C28.4075 19.0115 28.3799 19.1084 28.3496 19.2043C28.3105 19.3283 28.2681 19.451 28.2255 19.5738C28.1937 19.6658 28.163 19.7582 28.1292 19.8494C28.0812 19.9789 28.0293 20.1068 27.9775 20.2348C27.9442 20.317 27.9128 20.4 27.878 20.4815C27.8146 20.6299 27.7466 20.7764 27.6781 20.9226C27.6505 20.9816 27.6251 21.0416 27.5966 21.1002C27.4975 21.3044 27.3935 21.506 27.2847 21.7053C27.2651 21.7409 27.2435 21.7755 27.2237 21.811C27.1327 21.9739 27.0399 22.1359 26.9425 22.295C26.9027 22.36 26.8601 22.4231 26.8192 22.4875C26.7383 22.6151 26.6572 22.7426 26.5722 22.8676C26.5235 22.9391 26.4721 23.009 26.4221 23.0797C26.3405 23.1949 26.2588 23.31 26.1737 23.4227C26.1189 23.4954 26.0619 23.5665 26.0056 23.6383C25.9212 23.7458 25.8363 23.8528 25.7488 23.9579C25.6886 24.0301 25.6268 24.101 25.5652 24.1721C25.477 24.2736 25.388 24.3744 25.297 24.4734C25.2324 24.5436 25.1668 24.6128 25.1008 24.6817C25.0084 24.7781 24.9147 24.8733 24.8195 24.9672C24.7508 25.0349 24.6814 25.102 24.6113 25.1684C24.5148 25.2597 24.4168 25.3495 24.3173 25.4379C24.2448 25.5027 24.1721 25.5673 24.0981 25.6307C23.9971 25.7172 23.8939 25.8015 23.7902 25.8853C23.7141 25.9467 23.6384 26.0085 23.5609 26.0684C23.5322 26.0906 23.5023 26.1114 23.4734 26.1335L22.5018 22.7372L22.4867 22.6872C22.4763 22.6539 22.4792 22.6178 22.4948 22.5866L25.3129 17.5051L25.3354 17.4658C25.3562 17.4273 25.3946 17.4014 25.4381 17.3967C25.4547 17.3958 25.4713 17.3939 25.4877 17.3913H28.7863C28.7759 17.4521 28.7664 17.5131 28.7552 17.5737ZM28.9207 16.3969C28.9034 16.396 28.8869 16.3914 28.8695 16.3914H25.4589C25.4133 16.3907 25.3677 16.3946 25.3229 16.4033C25.3037 16.4054 25.2862 16.4132 25.2672 16.4163L22.347 10.5758C22.4413 10.4505 22.5081 10.3068 22.5432 10.154L23.5769 5.50193C23.6009 5.39031 23.608 5.2757 23.5977 5.16197L24.601 4.82547C24.6501 4.87199 24.7022 4.91476 24.7507 4.96211C24.9539 5.1533 25.1435 5.34882 25.3362 5.56609C27.6975 8.13987 29.0052 11.5071 29 14.9999C28.9979 15.4667 28.9714 15.9329 28.9207 16.3969Z" fill="white"/>
</svg>
