<svg width="50" height="50" viewBox="0 0 50 50" fill="none" xmlns="http://www.w3.org/2000/svg">
<g clip-path="url(#clip0)">
<path d="M48.8907 8.43166L25.5657 0.0983318C25.1974 -0.031671 24.7957 -0.031671 24.4274 0.0983318L1.10821 8.43166C0.447278 8.6699 0.00671387 9.29702 0.00671387 9.99958C0.00671387 10.7021 0.447278 11.3293 1.10821 11.5675L12.4999 15.6375V20.8333C12.4999 24.0733 23.7207 24.1667 24.9999 24.1667C26.279 24.1667 37.4999 24.0733 37.4999 20.8333V15.6375L39.9999 14.75V16.6667C39.9999 17.5871 40.7461 18.3333 41.6665 18.3333H43.3332C44.2537 18.3333 44.9999 17.5871 44.9999 16.6667V14.1667C44.9974 13.7808 44.9043 13.4009 44.7282 13.0575L48.8949 11.5675C49.5558 11.3293 49.9964 10.7021 49.9964 9.99958C49.9964 9.29702 49.5558 8.6699 48.8949 8.43166H48.8907ZM35.8332 19C32.659 17.555 25.9707 17.5 24.9999 17.5C24.029 17.5 17.3407 17.555 14.1665 19V11.74C14.6665 11.0983 18.5965 10 24.9999 10C31.4032 10 35.3332 11.0983 35.8332 11.74V19ZM24.9999 22.5C18.8332 22.5 14.9607 21.4817 14.2365 20.8333C14.9607 20.185 18.8349 19.1667 24.9999 19.1667C31.1649 19.1667 35.039 20.185 35.7632 20.8333C35.039 21.4817 31.1665 22.5 24.9999 22.5V22.5ZM40.3907 12.8375L37.4999 13.8683V11.6667C37.4999 8.42666 26.279 8.33333 24.9999 8.33333C23.7207 8.33333 12.4999 8.42666 12.4999 11.6667V13.8675L1.66655 10L25.0115 1.66667L41.6665 7.61833V11.82C41.1396 12.0072 40.6905 12.3654 40.3907 12.8375ZM43.3332 16.6667H41.6665V14.1667C41.6665 13.7064 42.0396 13.3333 42.4999 13.3333C42.9601 13.3333 43.3332 13.7064 43.3332 14.1667V16.6667ZM43.3332 11.7867V8.21417L48.3332 10L43.3332 11.7867Z" fill="white"/>
<path d="M47.5 25.8334C47.45 25.8332 47.4 25.8377 47.3508 25.8467C39.9569 26.9962 32.4826 27.5491 25 27.5C17.5174 27.5491 10.0431 26.9962 2.64917 25.8467C2.59988 25.8383 2.55 25.8338 2.5 25.8334C1.91667 25.8334 0 26.4942 0 35C0 43.5059 1.91667 44.1667 2.5 44.1667C2.55004 44.1657 2.59992 44.1607 2.64917 44.1517C8.33058 43.2518 14.0653 42.729 19.8158 42.5867L18.1892 46.4884C17.9392 47.1131 18.0912 47.8269 18.5739 48.2957C19.0565 48.7646 19.7745 48.8956 20.3917 48.6276L21.0292 48.3551L21.305 48.9892C21.5655 49.6041 22.1697 50.0026 22.8375 50.0001H22.8583C23.5312 49.9948 24.1343 49.5841 24.3858 48.9601L25.8333 45.4951L27.2758 48.9467C27.5251 49.5767 28.1309 49.9931 28.8083 50.0001H28.8333C29.4966 50.0028 30.0975 49.6092 30.36 49.0001L30.6383 48.3609L31.2658 48.6301C31.8857 48.9037 32.6096 48.7733 33.0951 48.3007C33.5806 47.828 33.7303 47.1079 33.4733 46.4809L31.8783 42.6559C37.063 42.8395 42.2316 43.3404 47.355 44.1559C47.4029 44.1638 47.4514 44.1674 47.5 44.1667C48.0833 44.1667 50 43.5059 50 35C50 26.4942 48.0833 25.8334 47.5 25.8334V25.8334ZM27.6667 29.1417C28.0127 30.4142 28.2143 31.7216 28.2675 33.0392C26.378 32.1606 24.1619 32.3666 22.4667 33.5784C22.424 32.0819 22.2323 30.5934 21.8942 29.135C22.9036 29.1561 23.9389 29.1667 25 29.1667C25.9108 29.1667 26.795 29.1567 27.6667 29.1417V29.1417ZM25.8333 42.5001C23.5321 42.5001 21.6667 40.6346 21.6667 38.3334C21.6667 36.0322 23.5321 34.1667 25.8333 34.1667C28.1345 34.1667 30 36.0322 30 38.3334C29.9972 40.6334 28.1334 42.4973 25.8333 42.5001V42.5001ZM2.5 27.9167C3.13851 30.2213 3.41956 32.6102 3.33333 35C3.41956 37.3899 3.13851 39.7788 2.5 42.0834C1.86149 39.7788 1.58044 37.3899 1.66667 35C1.58044 32.6102 1.86149 30.2213 2.5 27.9167ZM4.18333 42.2251C4.63917 40.9034 5 38.6917 5 35C5 31.3084 4.63917 29.0967 4.1825 27.7734C9.47799 28.5047 14.8096 28.9451 20.1533 29.0925C20.6532 31.0206 20.882 33.0088 20.8333 35C20.8333 35.1209 20.8333 35.2359 20.8283 35.3517C19.8283 37.0114 19.7275 39.062 20.56 40.8117L20.5233 40.9001C15.056 41.0341 9.60065 41.477 4.18333 42.2267V42.2251ZM22.8392 48.3334L22.2308 46.9334C22.0479 46.513 21.5597 46.3194 21.1383 46.5001L19.7358 47.1201L21.69 42.4351C22.4923 43.248 23.5158 43.8073 24.6333 44.0434L22.8392 48.3334ZM30.5283 46.5001C30.107 46.3194 29.6188 46.513 29.4358 46.9334L28.8192 48.3192L27.0325 44.0417C28.1509 43.8055 29.1753 43.246 29.9783 42.4326L31.9283 47.0992L30.5283 46.5001ZM47.3333 42.4584C41.9794 41.6344 36.5808 41.1335 31.1667 40.9584L31.1075 40.8151C32.1555 38.6067 31.7062 35.9783 29.9842 34.2434C29.9777 32.5152 29.7781 30.7931 29.3892 29.1092C35.3982 28.9746 41.3921 28.4508 47.3333 27.5409C47.72 28.1975 48.3333 30.795 48.3333 35C48.3333 39.205 47.7158 41.8017 47.3333 42.4584V42.4584Z" fill="white"/>
</g>
<defs>
<clipPath id="clip0">
<rect width="50" height="50" fill="white"/>
</clipPath>
</defs>
</svg>
