<svg width="50" height="50" viewBox="0 0 50 50" fill="none" xmlns="http://www.w3.org/2000/svg">
<g clip-path="url(#clip0)">
<path d="M21.6667 20.8332H20.0001C19.5396 20.8332 19.1666 21.2063 19.1666 21.6667C19.1666 22.1268 19.5396 22.4998 20.0001 22.4998H21.6667C22.1268 22.4998 22.4998 22.1268 22.4998 21.6667C22.4998 21.2063 22.1268 20.8332 21.6667 20.8332Z" fill="white"/>
<path d="M21.6667 25H20.0001C19.5396 25 19.1666 25.3731 19.1666 25.8335C19.1666 26.2936 19.5396 26.6666 20.0001 26.6666H21.6667C22.1268 26.6666 22.4998 26.2936 22.4998 25.8335C22.4998 25.3731 22.1268 25 21.6667 25Z" fill="white"/>
<path d="M21.6667 29.1668H20.0001C19.5396 29.1668 19.1666 29.5399 19.1666 29.9999C19.1666 30.4604 19.5396 30.8334 20.0001 30.8334H21.6667C22.1268 30.8334 22.4998 30.4604 22.4998 29.9999C22.4998 29.5399 22.1268 29.1668 21.6667 29.1668V29.1668Z" fill="white"/>
<path d="M28.3333 22.4998H30C30.4604 22.4998 30.8335 22.1268 30.8335 21.6667C30.8335 21.2063 30.4604 20.8332 30 20.8332H28.3333C27.8733 20.8332 27.5002 21.2063 27.5002 21.6667C27.5002 22.1268 27.8733 22.4998 28.3333 22.4998V22.4998Z" fill="white"/>
<path d="M28.3333 26.6666H30C30.4604 26.6666 30.8335 26.2936 30.8335 25.8335C30.8335 25.3731 30.4604 25 30 25H28.3333C27.8733 25 27.5002 25.3731 27.5002 25.8335C27.5002 26.2936 27.8733 26.6666 28.3333 26.6666V26.6666Z" fill="white"/>
<path d="M28.3333 30.8334H30C30.4604 30.8334 30.8335 30.4604 30.8335 29.9999C30.8335 29.5399 30.4604 29.1668 30 29.1668H28.3333C27.8733 29.1668 27.5002 29.5399 27.5002 29.9999C27.5002 30.4604 27.8733 30.8334 28.3333 30.8334V30.8334Z" fill="white"/>
<path d="M35.8334 20.8332H34.1667V19.1666C34.1656 18.2465 33.4202 17.5011 32.5001 17.4999H26.6666C26.0494 17.5018 25.4555 17.7338 25 18.1499C24.5445 17.7338 23.9506 17.5018 23.3334 17.4999H17.4999C16.5798 17.5011 15.8344 18.2465 15.8333 19.1666V20.8332H14.1666C13.2465 20.8344 12.5008 21.5797 12.5 22.4998V35.8334C12.5008 36.7535 13.2465 37.4992 14.1666 37.5H35.8334C36.7535 37.4992 37.4992 36.7535 37.5 35.8334V22.4998C37.4992 21.5797 36.7535 20.8344 35.8334 20.8332V20.8332ZM24.1665 35.8334H14.1666V22.4998H15.8333V32.5001C15.8344 33.4202 16.5798 34.1656 17.4999 34.1667H23.3334C23.7934 34.1671 24.1661 34.5402 24.1665 34.9998V35.8334ZM24.1665 32.6427C23.8991 32.5481 23.6172 32.4997 23.3334 32.5001H17.4999V19.1666H23.3334C23.7934 19.1673 24.1661 19.54 24.1665 20.0001V32.6427ZM25.8335 20.0001C25.8339 19.54 26.2066 19.1673 26.6666 19.1666L32.5001 19.1654V32.5001H26.6666C26.3828 32.4997 26.1009 32.5481 25.8335 32.6427V20.0001ZM35.8334 35.8334H25.8335V34.9998C25.8339 34.5402 26.2066 34.1671 26.6666 34.1667H32.5001C33.4202 34.1656 34.1656 33.4202 34.1667 32.5001V22.4998H35.8334V35.8334Z" fill="white"/>
<path d="M49.9493 8.91369C49.9378 8.87439 49.9233 8.83625 49.9062 8.79924C49.8779 8.74508 49.8436 8.69472 49.8043 8.64818C49.7807 8.61576 49.7547 8.58524 49.7265 8.55663C49.6796 8.51658 49.6284 8.48224 49.5735 8.45363C49.5396 8.43074 49.5037 8.41053 49.4667 8.39298C49.4583 8.38955 49.4518 8.38268 49.4431 8.37963L26.1631 0.196721C25.4101 -0.066875 24.5899 -0.066875 23.8369 0.196721L0.556946 8.37963C0.548172 8.38268 0.542068 8.38955 0.533295 8.39298C0.496292 8.41053 0.460434 8.43074 0.426483 8.45363C0.371552 8.48224 0.320435 8.51658 0.273514 8.55663C0.245285 8.58524 0.219345 8.61576 0.195694 8.64818C0.156403 8.69472 0.12207 8.74508 0.0938416 8.79924C0.0766754 8.83625 0.0621796 8.87439 0.0507355 8.91369C0.0312805 8.97396 0.018692 9.03576 0.0133515 9.0987C0.0114441 9.12197 0 9.14219 0 9.16584V13.3326C0.000762939 14.2527 0.746536 14.9981 1.66664 14.9993H3.33328V18.3326C3.33519 18.9254 3.65295 19.472 4.16679 19.7673V39.9993H2.50015C1.58005 40 0.834274 40.7458 0.833511 41.6659V44.3976C0.31929 44.6929 0.00190734 45.2399 0 45.8323V48.3325C0.000762939 49.2526 0.746536 49.9984 1.66664 49.9991H48.3334C49.2535 49.9984 49.9992 49.2526 50 48.3325V45.8323C49.9981 45.2399 49.6807 44.6929 49.1665 44.3976V41.6659C49.1657 40.7458 48.42 40 47.4998 39.9993H45.8332V19.7673C46.347 19.472 46.6648 18.9254 46.6667 18.3326V14.9993H48.3334C49.2535 14.9981 49.9992 14.2527 50 13.3326V9.16584C50 9.14219 49.9886 9.12197 49.9866 9.09908C49.9813 9.03614 49.9687 8.97396 49.9493 8.91369V8.91369ZM24.3896 1.76914C24.7849 1.63067 25.2151 1.63067 25.6104 1.76914L44.2825 8.33233H5.71747L24.3896 1.76914ZM48.3334 45.8323L48.3345 48.3325H1.66664V45.8323H48.3334ZM47.4998 41.6659V44.1657H2.50015V41.6659H47.4998ZM4.99992 18.3326V14.9993H10.0002L10.0014 18.3326H4.99992ZM9.16672 19.9992V39.9993H5.83344V19.9992H9.16672ZM39.1666 19.7673V39.9993H10.8334V19.7673C11.3472 19.472 11.665 18.9254 11.6665 18.3326V14.9993H38.3335V18.3326C38.335 18.9254 38.6528 19.472 39.1666 19.7673V19.7673ZM40.0002 18.3326V14.9993H45.0005L45.0012 18.3326H40.0002ZM44.1666 19.9992V39.9993H40.8333V19.9992H44.1666ZM45.8332 13.3326H1.66664V9.99897H48.3337L48.3345 13.3326H45.8332Z" fill="white"/>
</g>
<defs>
<clipPath id="clip0">
<rect width="50" height="50" fill="white"/>
</clipPath>
</defs>
</svg>
