<svg width="30" height="30" viewBox="0 0 30 30" fill="none" xmlns="http://www.w3.org/2000/svg">
<g clip-path="url(#clip0)">
<path d="M13 12.4999H12C11.7238 12.4999 11.4999 12.7238 11.4999 13C11.4999 13.2761 11.7238 13.4999 12 13.4999H13C13.2761 13.4999 13.4999 13.2761 13.4999 13C13.4999 12.7238 13.2761 12.4999 13 12.4999Z" fill="white"/>
<path d="M13 15H12C11.7238 15 11.4999 15.2238 11.4999 15.5001C11.4999 15.7761 11.7238 16 12 16H13C13.2761 16 13.4999 15.7761 13.4999 15.5001C13.4999 15.2238 13.2761 15 13 15Z" fill="white"/>
<path d="M13 17.5001H12C11.7238 17.5001 11.4999 17.7239 11.4999 18C11.4999 18.2762 11.7238 18.5001 12 18.5001H13C13.2761 18.5001 13.4999 18.2762 13.4999 18C13.4999 17.7239 13.2761 17.5001 13 17.5001V17.5001Z" fill="white"/>
<path d="M17 13.4999H18C18.2762 13.4999 18.5001 13.2761 18.5001 13C18.5001 12.7238 18.2762 12.4999 18 12.4999H17C16.724 12.4999 16.5001 12.7238 16.5001 13C16.5001 13.2761 16.724 13.4999 17 13.4999V13.4999Z" fill="white"/>
<path d="M17 16H18C18.2762 16 18.5001 15.7761 18.5001 15.5001C18.5001 15.2238 18.2762 15 18 15H17C16.724 15 16.5001 15.2238 16.5001 15.5001C16.5001 15.7761 16.724 16 17 16V16Z" fill="white"/>
<path d="M17 18.5001H18C18.2762 18.5001 18.5001 18.2762 18.5001 18C18.5001 17.7239 18.2762 17.5001 18 17.5001H17C16.724 17.5001 16.5001 17.7239 16.5001 18C16.5001 18.2762 16.724 18.5001 17 18.5001V18.5001Z" fill="white"/>
<path d="M21.5 12.4999H20.5V11.4999C20.4993 10.9479 20.0521 10.5006 19.5 10.5H16C15.6297 10.5011 15.2733 10.6403 15 10.89C14.7267 10.6403 14.3703 10.5011 14 10.5H10.5C9.94789 10.5006 9.50066 10.9479 9.49997 11.4999V12.4999H8.49998C7.94792 12.5006 7.50046 12.9478 7.5 13.4999V21.5C7.50046 22.0521 7.94792 22.4995 8.49998 22.5H21.5C22.0521 22.4995 22.4995 22.0521 22.5 21.5V13.4999C22.4995 12.9478 22.0521 12.5006 21.5 12.4999V12.4999ZM14.4999 21.5H8.49998V13.4999H9.49997V19.5C9.50066 20.0521 9.94789 20.4993 10.5 20.5H14C14.276 20.5003 14.4997 20.7241 14.4999 20.9999V21.5ZM14.4999 19.5856C14.3394 19.5289 14.1703 19.4998 14 19.5H10.5V11.4999H14C14.276 11.5004 14.4997 11.724 14.4999 12V19.5856ZM15.5001 12C15.5003 11.724 15.724 11.5004 16 11.4999L19.5 11.4993V19.5H16C15.8297 19.4998 15.6606 19.5289 15.5001 19.5856V12ZM21.5 21.5H15.5001V20.9999C15.5003 20.7241 15.724 20.5003 16 20.5H19.5C20.0521 20.4993 20.4993 20.0521 20.5 19.5V13.4999H21.5V21.5Z" fill="white"/>
<path d="M29.9696 5.34782C29.9627 5.32425 29.954 5.30136 29.9437 5.27916C29.9268 5.24666 29.9062 5.21644 29.8826 5.18852C29.8684 5.16906 29.8528 5.15075 29.8359 5.13359C29.8077 5.10955 29.7771 5.08896 29.7441 5.07179C29.7237 5.05806 29.7022 5.04593 29.68 5.0354C29.675 5.03334 29.6711 5.02922 29.6658 5.02739L15.6979 0.117642C15.246 -0.0405154 14.754 -0.0405154 14.3021 0.117642L0.334167 5.02739C0.328903 5.02922 0.325241 5.03334 0.319977 5.0354C0.297775 5.04593 0.27626 5.05806 0.25589 5.07179C0.222931 5.08896 0.192261 5.10955 0.164108 5.13359C0.147171 5.15075 0.131607 5.16906 0.117416 5.18852C0.0938415 5.21644 0.0732422 5.24666 0.056305 5.27916C0.0460052 5.30136 0.0373078 5.32425 0.0304413 5.34782C0.0187683 5.38398 0.0112152 5.42106 0.00801088 5.45883C0.00686648 5.47279 0 5.48492 0 5.49911V7.99919C0.000457764 8.55125 0.447922 8.99849 0.999985 8.99917H1.99997V10.9991C2.00111 11.3548 2.19177 11.6828 2.50008 11.86V23.9992H1.50009C0.948029 23.9996 0.500565 24.4471 0.500107 24.9992V26.6382C0.191574 26.8153 0.00114441 27.1436 0 27.499V28.9991C0.000457764 29.5512 0.447922 29.9986 0.999985 29.9991H29C29.5521 29.9986 29.9995 29.5512 30 28.9991V27.499C29.9989 27.1436 29.8084 26.8153 29.4999 26.6382V24.9992C29.4994 24.4471 29.052 23.9996 28.4999 23.9992H27.4999V11.86C27.8082 11.6828 27.9989 11.3548 28 10.9991V8.99917H29C29.5521 8.99849 29.9995 8.55125 30 7.99919V5.49911C30 5.48492 29.9931 5.47279 29.992 5.45906C29.9888 5.42129 29.9812 5.38398 29.9696 5.34782V5.34782ZM14.6338 1.06109C14.8709 0.978009 15.1291 0.978009 15.3662 1.06109L26.5695 4.999H3.43048L14.6338 1.06109ZM29 27.499L29.0007 28.9991H0.999985V27.499H29ZM28.4999 24.9992V26.499H1.50009V24.9992H28.4999ZM2.99995 10.9991V8.99917H6.00014L6.00082 10.9991H2.99995ZM5.50003 11.9991V23.9992H3.50006V11.9991H5.50003ZM23.5 11.86V23.9992H6.50002V11.86C6.80832 11.6828 6.99898 11.3548 6.99989 10.9991V8.99917H23.0001V10.9991C23.001 11.3548 23.1917 11.6828 23.5 11.86V11.86ZM24.0001 10.9991V8.99917H27.0003L27.0007 10.9991H24.0001ZM26.4999 11.9991V23.9992H24.5V11.9991H26.4999ZM27.4999 7.99919H0.999985V5.99899H29.0002L29.0007 7.99919H27.4999Z" fill="white"/>
</g>
<defs>
<clipPath id="clip0">
<rect width="30" height="30" fill="white"/>
</clipPath>
</defs>
</svg>
