<svg width="50" height="50" viewBox="0 0 50 50" fill="none" xmlns="http://www.w3.org/2000/svg">
<g clip-path="url(#clip0)">
<path d="M49.9502 48.8818C47.1135 41.0843 38.6816 37.3757 35.4459 36.2118C35.3277 35.1768 35.2203 34.0106 35.1235 32.7136C35.1174 32.6862 35.1097 32.6592 35.1008 32.6326C36.5624 31.2975 37.1683 29.2648 36.6763 27.3474C36.667 27.2977 36.6621 27.2464 36.6535 27.1964C39.7653 25.5368 41.6627 20.4638 41.6673 17.3071C41.6697 15.3386 40.9381 14.6354 40.3204 14.3909C39.6544 14.1237 38.9155 14.1 38.2338 14.3239C38.5265 11.3282 38.3431 7.33096 36.1016 4.28916C34.0046 1.44287 30.5304 0 25.7762 0H24.2252C19.4709 0 15.9968 1.44287 13.8996 4.28916C11.6582 7.33086 11.4747 11.3279 11.7675 14.3235C11.0845 14.0993 10.3444 14.1236 9.67762 14.3921C9.06316 14.6354 8.33162 15.3386 8.33406 17.3071C8.33865 20.4638 10.236 25.5368 13.3478 27.1964C13.3393 27.2464 13.3344 27.2977 13.3251 27.3474C12.833 29.2649 13.4389 31.2976 14.9007 32.6327C14.8916 32.6592 14.884 32.6862 14.8778 32.7136C14.7824 34.0078 14.6749 35.1739 14.5552 36.2119C11.319 37.3761 2.88777 41.0846 0.0511488 48.8818C-0.0420152 49.1373 -0.00461289 49.4222 0.151344 49.6448C0.307301 49.8676 0.562184 50.0001 0.834059 50H49.1674C49.4392 50.0002 49.6941 49.8676 49.8501 49.6448C50.006 49.4222 50.0434 49.1373 49.9502 48.8818ZM37.9399 16.4035C38.3712 15.8886 39.0812 15.703 39.7093 15.9412C39.7849 15.9835 40.073 16.4425 39.9835 17.7711C39.8048 20.4368 38.3837 23.8399 36.4819 25.3276C36.4815 23.0455 36.8001 20.7744 37.4282 18.5804C37.6383 17.8646 37.8092 17.1379 37.9399 16.4035ZM10.0178 17.771C9.9282 16.4425 10.2163 15.9835 10.288 15.9428C10.9169 15.7023 11.629 15.8873 12.0613 16.4034C12.1922 17.1378 12.363 17.8646 12.5731 18.5804C13.203 20.7742 13.5218 23.0457 13.5201 25.3282C11.6179 23.8407 10.1965 20.4371 10.0178 17.771ZM14.1649 18.0871C14.1405 18.007 11.7357 10.0289 15.244 5.27344C17.0108 2.88008 20.0316 1.6667 24.2252 1.6667H25.7762C29.9698 1.6667 32.9906 2.88008 34.7574 5.27344C38.2657 10.0289 35.8609 18.007 35.8365 18.0863C35.4564 19.388 35.1782 20.7172 35.0042 22.062C32.3418 19.4001 28.7638 17.8549 25.0008 17.7417C21.2377 17.8549 17.6596 19.4002 14.9973 22.062C14.8233 20.7175 14.545 19.3885 14.1649 18.0871ZM14.964 27.6526C15.1592 26.5348 15.2325 25.3991 15.1828 24.2655C16.4162 22.8588 19.9595 19.4084 25.0007 19.4084C30.0418 19.4084 33.5851 22.8587 34.8185 24.2654C34.7688 25.399 34.8422 26.5348 35.0373 27.6525C35.5304 30.3026 34.2658 31.2642 32.801 32.3774C32.2901 32.7434 31.8112 33.1521 31.3695 33.5989C30.7955 34.2715 30.2961 35.0044 29.8803 35.7848C28.9582 37.3705 28.3267 38.3332 27.3273 38.3332H22.674C21.6747 38.3332 21.0431 37.3705 20.1211 35.7848C19.7053 35.0044 19.2058 34.2715 18.6318 33.5989C18.1901 33.152 17.7112 32.7433 17.2004 32.3773C15.7355 31.2643 14.4709 30.3027 14.964 27.6526ZM6.66736 48.3333H2.07996C3.16756 46.0922 4.73347 44.1169 6.66736 42.5467V48.3333ZM10.0007 48.3333H8.33396V41.2656C8.89217 40.876 9.45105 40.5155 10.0007 40.19V48.3333ZM38.334 48.3333H11.6674V39.278C12.658 38.7754 13.5666 38.3789 14.3139 38.0845C13.9469 40.5354 13.6216 41.0222 13.5733 41.0819C13.2524 41.4082 13.2547 41.9322 13.5782 42.2559C13.9036 42.5813 14.431 42.5814 14.7566 42.2563C15.1822 41.8303 15.6819 40.8618 16.1523 36.91L16.1538 36.8974L16.1557 36.8804C16.2644 35.9954 16.3648 34.9999 16.4555 33.9098C16.7957 34.1586 17.1152 34.4343 17.4113 34.7343C17.8993 35.3177 18.3245 35.9508 18.6801 36.6231C19.6012 38.2061 20.6445 40 22.6742 40H27.3275C29.3571 40 30.4005 38.206 31.3217 36.6231C31.6771 35.9508 32.1024 35.3177 32.5904 34.7343C32.8864 34.4344 33.206 34.1587 33.5462 33.9098C33.637 35.0017 33.7374 35.9984 33.8457 36.8821L33.8471 36.8946L33.8485 36.9067C34.3197 40.8618 34.8193 41.8303 35.245 42.2563C35.3913 42.4045 35.5909 42.4879 35.7992 42.4878C36.1304 42.4859 36.43 42.2909 36.5657 41.9889C36.7014 41.6868 36.6483 41.3333 36.4299 41.0844C36.3886 41.0344 36.0596 40.5676 35.6874 38.0844C36.4347 38.3787 37.3433 38.7753 38.3342 39.278V48.3333H38.334ZM41.6674 48.3333H40.0007V40.19C40.5503 40.5155 41.1092 40.876 41.6674 41.2656V48.3333V48.3333ZM43.334 48.3333V42.5467C45.2679 44.1169 46.8338 46.0922 47.9214 48.3333H43.334Z" fill="white"/>
<path d="M22.5 25.8333H27.5C27.9603 25.8333 28.3333 25.4603 28.3333 25C28.3333 24.5397 27.9603 24.1667 27.5 24.1667H22.5C22.0398 24.1667 21.6667 24.5397 21.6667 25C21.6667 25.4603 22.0398 25.8333 22.5 25.8333Z" fill="white"/>
<path d="M27.5 30.8333H22.5C22.0398 30.8333 21.6667 31.2063 21.6667 31.6666C21.6667 32.1269 22.0398 32.4999 22.5 32.4999H27.5C27.9603 32.4999 28.3333 32.1269 28.3333 31.6666C28.3333 31.2063 27.9603 30.8333 27.5 30.8333Z" fill="white"/>
<path d="M20.8332 29.1667H29.1665C29.6268 29.1667 29.9998 28.7937 29.9998 28.3334C29.9998 27.8731 29.6268 27.5001 29.1665 27.5001H20.8332C20.3729 27.5001 19.9999 27.8731 19.9999 28.3334C19.9999 28.7937 20.373 29.1667 20.8332 29.1667Z" fill="white"/>
</g>
<defs>
<clipPath id="clip0">
<rect width="50" height="50" fill="white"/>
</clipPath>
</defs>
</svg>
