<svg width="15" height="16" viewBox="0 0 15 16" fill="none" xmlns="http://www.w3.org/2000/svg">
<path d="M14.7719 14.1515L11.0742 10.3056C12.0249 9.17539 12.5459 7.75334 12.5459 6.27293C12.5459 2.81409 9.73177 0 6.27293 0C2.81409 0 0 2.81409 0 6.27293C0 9.73177 2.81409 12.5459 6.27293 12.5459C7.57143 12.5459 8.80883 12.1542 9.86677 11.4107L13.5926 15.2858C13.7484 15.4475 13.9578 15.5367 14.1823 15.5367C14.3947 15.5367 14.5963 15.4557 14.7493 15.3084C15.0744 14.9956 15.0848 14.4768 14.7719 14.1515ZM6.27293 1.63642C8.82956 1.63642 10.9094 3.7163 10.9094 6.27293C10.9094 8.82956 8.82956 10.9094 6.27293 10.9094C3.7163 10.9094 1.63642 8.82956 1.63642 6.27293C1.63642 3.7163 3.7163 1.63642 6.27293 1.63642Z" fill="white"/>
</svg>
