<svg width="153" height="53" viewBox="0 0 153 53" fill="none" xmlns="http://www.w3.org/2000/svg">
<path d="M25.6484 24.8281C25.6484 27.0625 25.0469 29.0078 23.8438 30.6641C22.6562 32.3203 20.9844 33.5547 18.8281 34.3672C16.6719 35.1797 14.0781 35.5859 11.0469 35.5859C7.53125 35.5859 4.3125 34.9922 1.39062 33.8047V24.5938C2.79688 25.625 4.35156 26.4609 6.05469 27.1016C7.75781 27.7266 9.34375 28.0391 10.8125 28.0391C11.9219 28.0391 12.7812 27.8438 13.3906 27.4531C14 27.0469 14.3047 26.4609 14.3047 25.6953C14.3047 25.1484 14.1484 24.6719 13.8359 24.2656C13.5391 23.8438 13.0781 23.4531 12.4531 23.0938C11.8438 22.7344 10.7031 22.2422 9.03125 21.6172C3.625 19.5391 0.921875 16.1797 0.921875 11.5391C0.921875 8.28906 2.15625 5.69531 4.625 3.75781C7.09375 1.80469 10.4062 0.828125 14.5625 0.828125C15.7344 0.828125 16.8125 0.875 17.7969 0.96875C18.7812 1.0625 19.6719 1.17969 20.4688 1.32031C21.2812 1.46094 22.4141 1.72656 23.8672 2.11719V10.6719C21.0391 9.125 18.2578 8.35156 15.5234 8.35156C14.3984 8.35156 13.4922 8.5625 12.8047 8.98438C12.1172 9.40625 11.7734 9.98438 11.7734 10.7188C11.7734 11.4219 12.0469 12.0078 12.5938 12.4766C13.1562 12.9297 14.3203 13.5234 16.0859 14.2578C19.5703 15.6641 22.0312 17.2031 23.4688 18.875C24.9219 20.5469 25.6484 22.5312 25.6484 24.8281Z" fill="#0E1229"/>
<path d="M29.7734 35V1.39062H39.8984V27.0781H51.4766V35H29.7734Z" fill="#0E1229"/>
<path d="M76.8125 35L75.3359 28.8125H65.3047L63.7109 35H52.7656L64.3438 1.39062H76.9062L87.8047 35H76.8125ZM70.4375 8.70312H70.2031C70.1719 9.07812 70.0625 9.69531 69.875 10.5547C69.6875 11.4141 68.7422 15.1016 67.0391 21.6172H73.4609L71.1172 12.4766C70.7891 11.1328 70.5625 9.875 70.4375 8.70312Z" fill="#0E1229"/>
<path d="M116.75 34.0859C113.969 35.0859 110.758 35.5859 107.117 35.5859C103.539 35.5859 100.453 34.9062 97.8594 33.5469C95.2656 32.1719 93.2812 30.2266 91.9062 27.7109C90.5469 25.1797 89.8672 22.2656 89.8672 18.9688C89.8672 15.4219 90.6328 12.2656 92.1641 9.5C93.6953 6.73438 95.8594 4.60156 98.6562 3.10156C101.453 1.58594 104.672 0.828125 108.312 0.828125C111.219 0.828125 114.031 1.17969 116.75 1.88281V11.2344C115.812 10.6719 114.695 10.2344 113.398 9.92188C112.102 9.60938 110.789 9.45312 109.461 9.45312C106.711 9.45312 104.539 10.2422 102.945 11.8203C101.367 13.3984 100.578 15.5391 100.578 18.2422C100.578 20.9297 101.367 23.0547 102.945 24.6172C104.539 26.1641 106.664 26.9375 109.32 26.9375C111.773 26.9375 114.25 26.3125 116.75 25.0625V34.0859Z" fill="#0E1229"/>
<path d="M140.562 35L133.109 20.7969C132.609 19.6719 132.312 18.8984 132.219 18.4766H132.102V35H121.977V1.39062H132.102V17.375H132.219C132.516 16.5312 132.852 15.75 133.227 15.0312L139.93 1.39062H151.93L142.391 17.4219L152.844 35H140.562Z" fill="#0E1229"/>
<path d="M9.41406 47.1484C9.41406 50.513 7.84635 52.1953 4.71094 52.1953C1.66927 52.1953 0.148438 50.5521 0.148438 47.2656V40.7969H2.67969V47.2969C2.67969 49.1094 3.38802 50.0156 4.80469 50.0156C6.19531 50.0156 6.89062 49.1406 6.89062 47.3906V40.7969H9.41406V47.1484Z" fill="#0E1229"/>
<path d="M24.0975 52H21.5506L16.9334 44.9609C16.6626 44.5495 16.4751 44.2396 16.3709 44.0312H16.3397C16.3814 44.4271 16.4022 45.0312 16.4022 45.8438V52H14.0194V40.7969H16.7381L21.1834 47.6172C21.3866 47.9245 21.5741 48.2292 21.7459 48.5312H21.7772C21.7355 48.2708 21.7147 47.7578 21.7147 46.9922V40.7969H24.0975V52Z" fill="#0E1229"/>
<path d="M31.3434 52H28.82V40.7969H31.3434V52Z" fill="#0E1229"/>
<path d="M45.3862 40.7969L41.5269 52H38.6675L34.855 40.7969H37.5737L39.9097 48.5938C40.0347 49.0156 40.1102 49.388 40.1362 49.7109H40.1831C40.2196 49.362 40.3003 48.9792 40.4253 48.5625L42.7456 40.7969H45.3862Z" fill="#0E1229"/>
<path d="M55.6087 52H48.89V40.7969H55.3509V42.8516H51.4134V45.3438H55.0775V47.3906H51.4134V49.9531H55.6087V52Z" fill="#0E1229"/>
<path d="M68.9641 52H66.0656L64.3234 49.1172C64.1932 48.8984 64.0682 48.7031 63.9484 48.5312C63.8286 48.3594 63.7062 48.2135 63.5812 48.0938C63.4615 47.9688 63.3339 47.875 63.1984 47.8125C63.0682 47.7448 62.925 47.7109 62.7687 47.7109H62.0891V52H59.5656V40.7969H63.5656C66.2844 40.7969 67.6438 41.8125 67.6438 43.8438C67.6438 44.2344 67.5839 44.5964 67.4641 44.9297C67.3443 45.2578 67.175 45.5547 66.9563 45.8203C66.7375 46.0859 66.4719 46.3151 66.1594 46.5078C65.8521 46.7005 65.5083 46.8516 65.1281 46.9609V46.9922C65.2948 47.0443 65.4563 47.1302 65.6125 47.25C65.7688 47.3646 65.9198 47.5 66.0656 47.6562C66.2115 47.8125 66.3495 47.9818 66.4797 48.1641C66.6151 48.3411 66.7375 48.5156 66.8469 48.6875L68.9641 52ZM62.0891 42.6875V45.8047H63.1828C63.7245 45.8047 64.1594 45.6484 64.4875 45.3359C64.8208 45.0182 64.9875 44.625 64.9875 44.1562C64.9875 43.1771 64.4016 42.6875 63.2297 42.6875H62.0891Z" fill="#0E1229"/>
<path d="M71.6631 51.5703V49.0703C72.1162 49.4505 72.6084 49.737 73.1397 49.9297C73.6709 50.1172 74.2074 50.2109 74.7491 50.2109C75.0668 50.2109 75.3428 50.1823 75.5772 50.125C75.8168 50.0677 76.0147 49.9896 76.1709 49.8906C76.3324 49.7865 76.4522 49.6667 76.5303 49.5312C76.6084 49.3906 76.6475 49.2396 76.6475 49.0781C76.6475 48.8594 76.585 48.6641 76.46 48.4922C76.335 48.3203 76.1631 48.1615 75.9444 48.0156C75.7308 47.8698 75.4756 47.7292 75.1787 47.5938C74.8819 47.4583 74.5616 47.3203 74.2178 47.1797C73.3428 46.8151 72.6892 46.3698 72.2569 45.8438C71.8298 45.3177 71.6162 44.6823 71.6162 43.9375C71.6162 43.3542 71.7334 42.8542 71.9678 42.4375C72.2022 42.0156 72.5199 41.6693 72.9209 41.3984C73.3272 41.1276 73.7959 40.9297 74.3272 40.8047C74.8584 40.6745 75.4209 40.6094 76.0147 40.6094C76.598 40.6094 77.1136 40.6458 77.5616 40.7188C78.0147 40.7865 78.4314 40.8932 78.8116 41.0391V43.375C78.6241 43.2448 78.4183 43.1302 78.1944 43.0312C77.9756 42.9323 77.7491 42.8516 77.5147 42.7891C77.2803 42.7214 77.0459 42.6719 76.8116 42.6406C76.5824 42.6094 76.3636 42.5938 76.1553 42.5938C75.8689 42.5938 75.6084 42.6224 75.3741 42.6797C75.1397 42.7318 74.9418 42.8073 74.7803 42.9062C74.6189 43.0052 74.4939 43.125 74.4053 43.2656C74.3168 43.401 74.2725 43.5547 74.2725 43.7266C74.2725 43.9141 74.322 44.0833 74.4209 44.2344C74.5199 44.3802 74.6605 44.5208 74.8428 44.6562C75.0251 44.7865 75.2465 44.9167 75.5069 45.0469C75.7673 45.1719 76.0616 45.3021 76.3897 45.4375C76.8376 45.625 77.2386 45.8255 77.5928 46.0391C77.9522 46.2474 78.2595 46.4844 78.5147 46.75C78.7699 47.0156 78.9652 47.3203 79.1006 47.6641C79.236 48.0026 79.3037 48.3984 79.3037 48.8516C79.3037 49.4766 79.184 50.0026 78.9444 50.4297C78.71 50.8516 78.3897 51.1953 77.9834 51.4609C77.5772 51.7214 77.1032 51.9089 76.5616 52.0234C76.0251 52.138 75.4574 52.1953 74.8584 52.1953C74.2439 52.1953 73.6579 52.1432 73.1006 52.0391C72.5485 51.9349 72.0694 51.7786 71.6631 51.5703Z" fill="#0E1229"/>
<path d="M85.8309 52H83.3075V40.7969H85.8309V52Z" fill="#0E1229"/>
<path d="M98.4128 42.8516H95.2175V52H92.6862V42.8516H89.5066V40.7969H98.4128V42.8516Z" fill="#0E1229"/>
<path d="M110.854 40.7969L107.206 48.0156V52H104.682V48.0625L101.128 40.7969H104.01L105.815 44.9766C105.846 45.0547 105.932 45.3594 106.073 45.8906H106.104C106.172 45.5156 106.253 45.2214 106.346 45.0078L108.182 40.7969H110.854Z" fill="#0E1229"/>
</svg>
